<mxfile host="app.diagrams.net" modified="2024-05-13T22:32:42.522Z" agent="Mozilla/5.0 (Windows NT 10.0; Win64; x64) AppleWebKit/537.36 (KHTML, like Gecko) Chrome/124.0.0.0 Safari/537.36" etag="uRG4m4CWGLoxzS-UwF_y" version="24.4.0" type="google">
  <diagram name="Página-1" id="hfXEuvOcHkTECtYeA-Sb">
    <mxGraphModel grid="1" page="1" gridSize="10" guides="1" tooltips="1" connect="1" arrows="1" fold="1" pageScale="1" pageWidth="827" pageHeight="1169" math="0" shadow="0">
      <root>
        <mxCell id="0" />
        <mxCell id="1" parent="0" />
        <mxCell id="xn-V6IwufwVLk1n-oRjC-1" value="INICIO" style="strokeWidth=2;html=1;shape=mxgraph.flowchart.start_1;whiteSpace=wrap;" vertex="1" parent="1">
          <mxGeometry x="364" y="30" width="100" height="60" as="geometry" />
        </mxCell>
        <mxCell id="xn-V6IwufwVLk1n-oRjC-2" value="MOSTRAR OPÇÕES:&lt;div&gt;1) VENDA&lt;/div&gt;&lt;div&gt;2) ALUGUEL&lt;/div&gt;&lt;div&gt;3) COMPRA&lt;/div&gt;" style="strokeWidth=2;html=1;shape=mxgraph.flowchart.display;whiteSpace=wrap;" vertex="1" parent="1">
          <mxGeometry x="321" y="170" width="186" height="100" as="geometry" />
        </mxCell>
        <mxCell id="xn-V6IwufwVLk1n-oRjC-4" value="SELEÇÃO OPERAÇÃO" style="strokeWidth=2;html=1;shape=mxgraph.flowchart.decision;whiteSpace=wrap;" vertex="1" parent="1">
          <mxGeometry x="311" y="340" width="206" height="100" as="geometry" />
        </mxCell>
        <mxCell id="xn-V6IwufwVLk1n-oRjC-5" style="edgeStyle=orthogonalEdgeStyle;rounded=0;orthogonalLoop=1;jettySize=auto;html=1;exitX=0.5;exitY=1;exitDx=0;exitDy=0;exitPerimeter=0;entryX=0.5;entryY=0;entryDx=0;entryDy=0;entryPerimeter=0;" edge="1" parent="1" source="xn-V6IwufwVLk1n-oRjC-2" target="xn-V6IwufwVLk1n-oRjC-4">
          <mxGeometry relative="1" as="geometry" />
        </mxCell>
        <mxCell id="xn-V6IwufwVLk1n-oRjC-6" value="TELA COMPRA" style="strokeWidth=2;html=1;shape=mxgraph.flowchart.display;whiteSpace=wrap;" vertex="1" parent="1">
          <mxGeometry x="580" y="410" width="100" height="60" as="geometry" />
        </mxCell>
        <mxCell id="xn-V6IwufwVLk1n-oRjC-7" style="edgeStyle=orthogonalEdgeStyle;rounded=0;orthogonalLoop=1;jettySize=auto;html=1;exitX=1;exitY=0.5;exitDx=0;exitDy=0;exitPerimeter=0;entryX=0.5;entryY=0;entryDx=0;entryDy=0;entryPerimeter=0;" edge="1" parent="1" source="xn-V6IwufwVLk1n-oRjC-4" target="xn-V6IwufwVLk1n-oRjC-6">
          <mxGeometry relative="1" as="geometry" />
        </mxCell>
        <mxCell id="xn-V6IwufwVLk1n-oRjC-14" style="edgeStyle=orthogonalEdgeStyle;rounded=0;orthogonalLoop=1;jettySize=auto;html=1;exitX=0.5;exitY=1;exitDx=0;exitDy=0;exitPerimeter=0;" edge="1" parent="1" source="xn-V6IwufwVLk1n-oRjC-8" target="xn-V6IwufwVLk1n-oRjC-12">
          <mxGeometry relative="1" as="geometry" />
        </mxCell>
        <mxCell id="xn-V6IwufwVLk1n-oRjC-8" value="TELA VENDA" style="strokeWidth=2;html=1;shape=mxgraph.flowchart.display;whiteSpace=wrap;" vertex="1" parent="1">
          <mxGeometry x="364" y="500" width="100" height="60" as="geometry" />
        </mxCell>
        <mxCell id="xn-V6IwufwVLk1n-oRjC-9" style="edgeStyle=orthogonalEdgeStyle;rounded=0;orthogonalLoop=1;jettySize=auto;html=1;exitX=0.5;exitY=1;exitDx=0;exitDy=0;exitPerimeter=0;entryX=0.5;entryY=0;entryDx=0;entryDy=0;entryPerimeter=0;" edge="1" parent="1" source="xn-V6IwufwVLk1n-oRjC-4" target="xn-V6IwufwVLk1n-oRjC-8">
          <mxGeometry relative="1" as="geometry" />
        </mxCell>
        <mxCell id="xn-V6IwufwVLk1n-oRjC-10" value="TELA ALUGUEL" style="strokeWidth=2;html=1;shape=mxgraph.flowchart.display;whiteSpace=wrap;" vertex="1" parent="1">
          <mxGeometry x="120" y="410" width="100" height="60" as="geometry" />
        </mxCell>
        <mxCell id="xn-V6IwufwVLk1n-oRjC-11" style="edgeStyle=orthogonalEdgeStyle;rounded=0;orthogonalLoop=1;jettySize=auto;html=1;exitX=0;exitY=0.5;exitDx=0;exitDy=0;exitPerimeter=0;entryX=0.543;entryY=0;entryDx=0;entryDy=0;entryPerimeter=0;" edge="1" parent="1" source="xn-V6IwufwVLk1n-oRjC-4" target="xn-V6IwufwVLk1n-oRjC-10">
          <mxGeometry relative="1" as="geometry" />
        </mxCell>
        <mxCell id="xn-V6IwufwVLk1n-oRjC-16" style="edgeStyle=orthogonalEdgeStyle;rounded=0;orthogonalLoop=1;jettySize=auto;html=1;exitX=0.5;exitY=1;exitDx=0;exitDy=0;" edge="1" parent="1" source="xn-V6IwufwVLk1n-oRjC-12" target="xn-V6IwufwVLk1n-oRjC-15">
          <mxGeometry relative="1" as="geometry" />
        </mxCell>
        <mxCell id="xn-V6IwufwVLk1n-oRjC-12" value="&lt;div&gt;&lt;br&gt;&lt;/div&gt;&lt;div&gt;&lt;br&gt;&lt;/div&gt;MARCA DO VEÍCULO (MIN. 2)" style="html=1;strokeWidth=2;shape=manualInput;whiteSpace=wrap;rounded=1;size=26;arcSize=11;" vertex="1" parent="1">
          <mxGeometry x="346" y="610" width="136" height="90" as="geometry" />
        </mxCell>
        <mxCell id="xn-V6IwufwVLk1n-oRjC-20" style="edgeStyle=orthogonalEdgeStyle;rounded=0;orthogonalLoop=1;jettySize=auto;html=1;exitX=0.5;exitY=1;exitDx=0;exitDy=0;entryX=0.5;entryY=0;entryDx=0;entryDy=0;" edge="1" parent="1" source="xn-V6IwufwVLk1n-oRjC-15" target="xn-V6IwufwVLk1n-oRjC-17">
          <mxGeometry relative="1" as="geometry" />
        </mxCell>
        <mxCell id="xn-V6IwufwVLk1n-oRjC-15" value="&lt;div&gt;&lt;br&gt;&lt;/div&gt;MODELO (MIN. 5 OPÇÕES)&lt;div&gt;&lt;/div&gt;" style="html=1;strokeWidth=2;shape=manualInput;whiteSpace=wrap;rounded=1;size=26;arcSize=11;" vertex="1" parent="1">
          <mxGeometry x="346" y="760" width="136" height="90" as="geometry" />
        </mxCell>
        <mxCell id="xn-V6IwufwVLk1n-oRjC-19" style="edgeStyle=orthogonalEdgeStyle;rounded=0;orthogonalLoop=1;jettySize=auto;html=1;exitX=0.5;exitY=1;exitDx=0;exitDy=0;" edge="1" parent="1" source="xn-V6IwufwVLk1n-oRjC-17" target="xn-V6IwufwVLk1n-oRjC-18">
          <mxGeometry relative="1" as="geometry" />
        </mxCell>
        <mxCell id="xn-V6IwufwVLk1n-oRjC-17" value="CALCULAR VALOR DO VEÍCULO SEGUINDO TABELA FIPE" style="rounded=1;whiteSpace=wrap;html=1;absoluteArcSize=1;arcSize=14;strokeWidth=2;" vertex="1" parent="1">
          <mxGeometry x="364" y="890" width="100" height="100" as="geometry" />
        </mxCell>
        <mxCell id="xn-V6IwufwVLk1n-oRjC-18" value="VALOR DA VENDA" style="strokeWidth=2;html=1;shape=mxgraph.flowchart.display;whiteSpace=wrap;" vertex="1" parent="1">
          <mxGeometry x="364" y="1030" width="100" height="60" as="geometry" />
        </mxCell>
        <mxCell id="xn-V6IwufwVLk1n-oRjC-24" value="" style="edgeStyle=orthogonalEdgeStyle;rounded=0;orthogonalLoop=1;jettySize=auto;html=1;" edge="1" parent="1" source="xn-V6IwufwVLk1n-oRjC-21" target="xn-V6IwufwVLk1n-oRjC-23">
          <mxGeometry relative="1" as="geometry" />
        </mxCell>
        <mxCell id="xn-V6IwufwVLk1n-oRjC-21" value="CLIENTE ACEITA PROPOSTA" style="strokeWidth=2;html=1;shape=mxgraph.flowchart.decision;whiteSpace=wrap;" vertex="1" parent="1">
          <mxGeometry x="331" y="1140" width="166" height="100" as="geometry" />
        </mxCell>
        <mxCell id="xn-V6IwufwVLk1n-oRjC-22" style="edgeStyle=orthogonalEdgeStyle;rounded=0;orthogonalLoop=1;jettySize=auto;html=1;exitX=0.5;exitY=1;exitDx=0;exitDy=0;exitPerimeter=0;entryX=0.5;entryY=0;entryDx=0;entryDy=0;entryPerimeter=0;" edge="1" parent="1" source="xn-V6IwufwVLk1n-oRjC-18" target="xn-V6IwufwVLk1n-oRjC-21">
          <mxGeometry relative="1" as="geometry" />
        </mxCell>
        <mxCell id="xn-V6IwufwVLk1n-oRjC-26" value="" style="edgeStyle=orthogonalEdgeStyle;rounded=0;orthogonalLoop=1;jettySize=auto;html=1;" edge="1" parent="1" source="xn-V6IwufwVLk1n-oRjC-23" target="xn-V6IwufwVLk1n-oRjC-25">
          <mxGeometry relative="1" as="geometry" />
        </mxCell>
        <mxCell id="xn-V6IwufwVLk1n-oRjC-23" value="ADICIONAR VALOR NA CONTA DO CLIENTE" style="rounded=1;whiteSpace=wrap;html=1;strokeWidth=2;" vertex="1" parent="1">
          <mxGeometry x="354" y="1340" width="120" height="60" as="geometry" />
        </mxCell>
        <mxCell id="xn-V6IwufwVLk1n-oRjC-28" value="" style="edgeStyle=orthogonalEdgeStyle;rounded=0;orthogonalLoop=1;jettySize=auto;html=1;" edge="1" parent="1" source="xn-V6IwufwVLk1n-oRjC-25" target="xn-V6IwufwVLk1n-oRjC-27">
          <mxGeometry relative="1" as="geometry" />
        </mxCell>
        <mxCell id="xn-V6IwufwVLk1n-oRjC-25" value="ADICIONAR VEÍCULO NO ESTOQUE DA EMPRESA" style="rounded=1;whiteSpace=wrap;html=1;strokeWidth=2;" vertex="1" parent="1">
          <mxGeometry x="354" y="1480" width="120" height="80" as="geometry" />
        </mxCell>
        <mxCell id="xn-V6IwufwVLk1n-oRjC-27" value="GERAR LOG DE VENDA" style="rounded=1;whiteSpace=wrap;html=1;strokeWidth=2;" vertex="1" parent="1">
          <mxGeometry x="354" y="1640" width="120" height="80" as="geometry" />
        </mxCell>
        <mxCell id="xn-V6IwufwVLk1n-oRjC-29" value="PROPOSTA DE VENDA CANCELADA" style="strokeWidth=2;html=1;shape=mxgraph.flowchart.display;whiteSpace=wrap;" vertex="1" parent="1">
          <mxGeometry x="550" y="1140" width="160" height="90" as="geometry" />
        </mxCell>
        <mxCell id="xn-V6IwufwVLk1n-oRjC-30" style="edgeStyle=orthogonalEdgeStyle;rounded=0;orthogonalLoop=1;jettySize=auto;html=1;exitX=1;exitY=0.5;exitDx=0;exitDy=0;exitPerimeter=0;entryX=0;entryY=0.5;entryDx=0;entryDy=0;entryPerimeter=0;" edge="1" parent="1" source="xn-V6IwufwVLk1n-oRjC-21" target="xn-V6IwufwVLk1n-oRjC-29">
          <mxGeometry relative="1" as="geometry" />
        </mxCell>
        <mxCell id="xn-V6IwufwVLk1n-oRjC-32" value="RECUSAR" style="text;html=1;align=center;verticalAlign=middle;resizable=0;points=[];autosize=1;strokeColor=none;fillColor=none;" vertex="1" parent="1">
          <mxGeometry x="482" y="1200" width="80" height="30" as="geometry" />
        </mxCell>
        <mxCell id="xn-V6IwufwVLk1n-oRjC-33" value="ACEITAR" style="text;html=1;align=center;verticalAlign=middle;resizable=0;points=[];autosize=1;strokeColor=none;fillColor=none;" vertex="1" parent="1">
          <mxGeometry x="344" y="1240" width="70" height="30" as="geometry" />
        </mxCell>
        <mxCell id="xn-V6IwufwVLk1n-oRjC-34" value="ALUGUEL" style="text;html=1;align=center;verticalAlign=middle;resizable=0;points=[];autosize=1;strokeColor=none;fillColor=none;" vertex="1" parent="1">
          <mxGeometry x="250" y="358" width="80" height="30" as="geometry" />
        </mxCell>
        <mxCell id="xn-V6IwufwVLk1n-oRjC-35" value="VENDA" style="text;html=1;align=center;verticalAlign=middle;resizable=0;points=[];autosize=1;strokeColor=none;fillColor=none;" vertex="1" parent="1">
          <mxGeometry x="414" y="438" width="60" height="30" as="geometry" />
        </mxCell>
        <mxCell id="xn-V6IwufwVLk1n-oRjC-36" value="COMPRA" style="text;html=1;align=center;verticalAlign=middle;resizable=0;points=[];autosize=1;strokeColor=none;fillColor=none;" vertex="1" parent="1">
          <mxGeometry x="500" y="358" width="80" height="30" as="geometry" />
        </mxCell>
        <mxCell id="xn-V6IwufwVLk1n-oRjC-37" value="" style="verticalLabelPosition=bottom;verticalAlign=top;html=1;shape=mxgraph.flowchart.or;" vertex="1" parent="1">
          <mxGeometry x="403" y="120" width="21" height="20" as="geometry" />
        </mxCell>
        <mxCell id="xn-V6IwufwVLk1n-oRjC-38" style="edgeStyle=orthogonalEdgeStyle;rounded=0;orthogonalLoop=1;jettySize=auto;html=1;exitX=0.5;exitY=1;exitDx=0;exitDy=0;exitPerimeter=0;entryX=0.5;entryY=0;entryDx=0;entryDy=0;entryPerimeter=0;" edge="1" parent="1" source="xn-V6IwufwVLk1n-oRjC-1" target="xn-V6IwufwVLk1n-oRjC-37">
          <mxGeometry relative="1" as="geometry" />
        </mxCell>
        <mxCell id="xn-V6IwufwVLk1n-oRjC-39" style="edgeStyle=orthogonalEdgeStyle;rounded=0;orthogonalLoop=1;jettySize=auto;html=1;exitX=0.5;exitY=1;exitDx=0;exitDy=0;exitPerimeter=0;entryX=0.5;entryY=0;entryDx=0;entryDy=0;entryPerimeter=0;" edge="1" parent="1" source="xn-V6IwufwVLk1n-oRjC-37" target="xn-V6IwufwVLk1n-oRjC-2">
          <mxGeometry relative="1" as="geometry" />
        </mxCell>
        <mxCell id="xn-V6IwufwVLk1n-oRjC-40" style="edgeStyle=orthogonalEdgeStyle;rounded=0;orthogonalLoop=1;jettySize=auto;html=1;exitX=1;exitY=0.5;exitDx=0;exitDy=0;exitPerimeter=0;entryX=1;entryY=0.5;entryDx=0;entryDy=0;entryPerimeter=0;" edge="1" parent="1" source="xn-V6IwufwVLk1n-oRjC-29" target="xn-V6IwufwVLk1n-oRjC-37">
          <mxGeometry relative="1" as="geometry">
            <Array as="points">
              <mxPoint x="1610" y="1185" />
              <mxPoint x="1610" y="130" />
            </Array>
          </mxGeometry>
        </mxCell>
      </root>
    </mxGraphModel>
  </diagram>
</mxfile>
